<?xml version='1.0' encoding='utf-8'?>
<svg xmlns="http://www.w3.org/2000/svg" viewBox="0 0 1200 900" width="1200" height="900"><!-- Magisk Architecture Diagram v1.0 --><style>
            text { font-family: Arial, sans-serif; font-size: 11px; }
            .title { font-size: 18px; font-weight: bold; fill: #1a1a1a; }
            .subtitle { font-size: 12px; fill: #555; }
            .box { fill: #fff; stroke: #333; stroke-width: 1.5; }
            .box-blue { fill: #E3F2FD; stroke: #1565C0; stroke-width: 1.5; }
            .box-green { fill: #E8F5E9; stroke: #2E7D32; stroke-width: 1.5; }
            .box-purple { fill: #F3E5F5; stroke: #7B1FA2; stroke-width: 1.5; }
            .box-orange { fill: #FFF3E0; stroke: #E65100; stroke-width: 1.5; }
            .box-red { fill: #FFEBEE; stroke: #C62828; stroke-width: 1.5; }
            .box-teal { fill: #E0F2F1; stroke: #00695C; stroke-width: 1.5; }
            .box-yellow { fill: #FFF8E1; stroke: #F57F17; stroke-width: 1.5; }
            .label { font-size: 10px; fill: #333; text-anchor: middle; }
            .label-bold { font-weight: bold; font-size: 11px; }
            .edge { stroke: #666; stroke-width: 1.5; fill: none; }
            .edge-dashed { stroke: #666; stroke-width: 1.5; fill: none; stroke-dasharray: 5,4; }
            .edge-label { font-size: 9px; fill: #555; text-anchor: middle; }
        </style><text x="600" y="30" class="title" text-anchor="middle">Magisk Architecture — Main Workflow</text><text x="600" y="48" class="subtitle" text-anchor="middle">boot → daemon → modules → su → zygisk → denylist (with file:method references)</text><rect x="50" y="65" width="280" height="30" rx="2" class="box-purple" /><text x="190.0" y="84.0" class="label label-bold">BOOT PROCESS</text><rect x="60" y="110" width="260" height="50" rx="4" class="box-purple" /><text x="190.0" y="129.0" class="label label-bold">magiskinit (PID 1)</text><text x="190.0" y="149.0" class="label">init/init.rs :: main()</text><line x1="190.0" y1="110" x2="190.0" y2="160" class="edge" style="stroke:#7B1FA2;" /><rect x="60" y="170" width="260" height="65" rx="4" class="box-purple" /><text x="190.0" y="196.5" class="label label-bold">first_stage() [2SI]</text><text x="190.0" y="216.5" class="label">twostage.rs :: hijack_init_with_switch_root()</text><rect x="60" y="245" width="260" height="65" rx="4" class="box-purple" /><text x="190.0" y="271.5" class="label label-bold">second_stage()</text><text x="190.0" y="291.5" class="label">rootdir.cpp :: patch_ro_root()
+ inject init.rc services</text><rect x="60" y="320" width="260" height="50" rx="4" class="box-purple" /><text x="190.0" y="339.0" class="label label-bold">exec_init()</text><text x="190.0" y="359.0" class="label">→ /system/bin/init</text><line x1="190.0" y1="160" x2="190.0" y2="170" class="edge" style="stroke:#7B1FA2;" /><line x1="190.0" y1="235" x2="190.0" y2="245" class="edge" style="stroke:#7B1FA2;" /><line x1="190.0" y1="310" x2="190.0" y2="320" class="edge" style="stroke:#7B1FA2;" /><rect x="60" y="360" width="260" height="55" rx="4" class="box-purple" /><text x="190.0" y="381.5" class="label label-bold">init.rc injected services:</text><text x="190.0" y="401.5" class="label">magisk --post-fs-data
magisk --service
magisk --boot-complete</text><line x1="330" y1="390" x2="380" y2="390" class="edge" style="stroke:#1565C0;" /><text x="355.0" y="385.0" class="edge-label" fill="#1565C0">init.rc</text><text x="355.0" y="402.0" class="edge-label" fill="#1565C0">triggers</text><rect x="380" y="65" width="240" height="30" rx="2" class="box-blue" /><text x="500.0" y="84.0" class="label label-bold">BOOT STAGES</text><rect x="390" y="110" width="220" height="70" rx="4" class="box-blue" /><text x="500.0" y="139.0" class="label label-bold">magisk --post-fs-data</text><text x="500.0" y="159.0" class="label">bootstages.rs :: post_fs_data()
init denylist → handle_modules()</text><rect x="390" y="195" width="220" height="60" rx="4" class="box-blue" /><text x="500.0" y="219.0" class="label label-bold">magisk --service</text><text x="500.0" y="239.0" class="label">bootstages.rs :: late_start()
exec service scripts</text><rect x="390" y="270" width="220" height="60" rx="4" class="box-blue" /><text x="500.0" y="294.0" class="label label-bold">magisk --boot-complete</text><text x="500.0" y="314.0" class="label">bootstages.rs :: boot_complete()
reset counter, ensure_manager()</text><rect x="390" y="350" width="220" height="70" rx="4" class="box-blue" /><text x="500.0" y="379.0" class="label label-bold">magiskd (daemon)</text><text x="500.0" y="399.0" class="label">daemon.rs :: daemon_entry()
socket bind, handle_requests()</text><line x1="500.0" y1="370" x2="500.0" y2="350" class="edge" style="stroke:#1565C0;" /><text x="500.0" y="355.0" class="edge-label" fill="#1565C0">fork</text><line x1="620" y1="140" x2="650" y2="140" class="edge-dashed" style="stroke:#F57F17;" /><text x="635.0" y="135.0" class="edge-label" fill="#F57F17">handle_modules()</text><rect x="650" y="65" width="250" height="30" rx="2" class="box-yellow" /><text x="775.0" y="84.0" class="label label-bold">MODULE SYSTEM</text><rect x="660" y="110" width="230" height="65" rx="4" class="box-yellow" /><text x="775.0" y="136.5" class="label label-bold">module.rs :: collect_modules()</text><text x="775.0" y="156.5" class="label">Scan /data/adb/modules/*/
Check module.prop, flags</text><rect x="660" y="190" width="230" height="65" rx="4" class="box-yellow" /><text x="775.0" y="216.5" class="label label-bold">module.rs :: apply_modules()</text><text x="775.0" y="236.5" class="label">FsNode virtual tree → inject
bins/zygisk → commit()</text><rect x="660" y="270" width="230" height="60" rx="4" class="box-yellow" /><text x="775.0" y="294.0" class="label label-bold">bind mount overlays</text><text x="775.0" y="314.0" class="label">module files appear at system/
System partition untouched</text><line x1="775.0" y1="145" x2="775.0" y2="190" class="edge" style="stroke:#F57F17;" /><line x1="775.0" y1="255" x2="775.0" y2="270" class="edge" style="stroke:#F57F17;" /><rect x="380" y="470" width="240" height="30" rx="2" class="box-green" /><text x="500.0" y="489.0" class="label label-bold">SUPERUSER SYSTEM</text><line x1="500.0" y1="420" x2="500.0" y2="475" class="edge" style="stroke:#2E7D32;" /><text x="500.0" y="442.5" class="edge-label" fill="#2E7D32">code: SUPERUSER</text><rect x="390" y="515" width="220" height="55" rx="4" class="box-green" /><text x="500.0" y="536.5" class="label label-bold">su.cpp :: su_client_main()</text><text x="500.0" y="556.5" class="label">parse args → connect daemon
→ PTY pump → exit code</text><rect x="390" y="585" width="220" height="65" rx="4" class="box-green" /><text x="500.0" y="611.5" class="label label-bold">su/daemon.rs :: su_daemon_handler()</text><text x="500.0" y="631.5" class="label">check DB policy → fork child
→ exec_root_shell() (C++)</text><rect x="390" y="665" width="220" height="65" rx="4" class="box-green" /><text x="500.0" y="691.5" class="label label-bold">su/connect.rs :: connect_app()</text><text x="500.0" y="711.5" class="label">FIFO IPC with Manager app
Use am start + content provider</text><line x1="500.0" y1="545" x2="500.0" y2="585" class="edge" style="stroke:#2E7D32;" /><line x1="500.0" y1="650" x2="500.0" y2="665" class="edge" style="stroke:#2E7D32;" /><rect x="930" y="65" width="240" height="30" rx="2" class="box-red" /><text x="1050.0" y="84.0" class="label label-bold">ZYGISK (ZYGOTE INJECTION)</text><line x1="330" y1="95" x2="930" y2="80" class="edge-dashed" style="stroke:#C62828;" /><text x="630.0" y="82.5" class="edge-label" fill="#C62828">setprop ro.dalvik.vm.</text><text x="630.0" y="99.5" class="edge-label" fill="#C62828">native.bridge=libzygisk.so</text><rect x="940" y="110" width="220" height="65" rx="4" class="box-red" /><text x="1050.0" y="136.5" class="label label-bold">entry.cpp :: NativeBridgeItf</text><text x="1050.0" y="156.5" class="label">isCompatibleWith() → hook_entry()
return false → dlclose fires</text><rect x="940" y="190" width="220" height="70" rx="4" class="box-red" /><text x="1050.0" y="219.0" class="label label-bold">hook.cpp :: hook_plt()</text><text x="1050.0" y="239.0" class="label">PLT hooks: dlclose, strdup, fork,
unshare, selinux_android_setcontext</text><rect x="940" y="275" width="220" height="65" rx="4" class="box-red" /><text x="1050.0" y="301.5" class="label label-bold">hook.cpp :: hook_zygote_jni()</text><text x="1050.0" y="321.5" class="label">JNI hooks: nativeForkAndSpecialize
nativeSpecializeAppProcess</text><rect x="940" y="355" width="220" height="70" rx="4" class="box-red" /><text x="1050.0" y="384.0" class="label label-bold">hook.cpp :: ZygiskContext</text><text x="1050.0" y="404.0" class="label">DenyList check → module load
→ revert_unmount() if matched</text><line x1="1050.0" y1="145" x2="1050.0" y2="190" class="edge" style="stroke:#C62828;" /><line x1="1050.0" y1="260" x2="1050.0" y2="275" class="edge" style="stroke:#C62828;" /><line x1="1050.0" y1="340" x2="1050.0" y2="355" class="edge" style="stroke:#C62828;" /><line x1="1050.0" y1="425" x2="1050.0" y2="480" class="edge" style="stroke:#C62828;" /><text x="1050.0" y="447.5" class="edge-label" fill="#C62828">if on DenyList</text><rect x="930" y="470" width="240" height="30" rx="2" class="box-red" /><text x="1050.0" y="489.0" class="label label-bold">DENYLIST</text><rect x="940" y="515" width="220" height="55" rx="4" class="box-red" /><text x="1050.0" y="536.5" class="label label-bold">deny/utils.cpp :: revert_unmount()</text><text x="1050.0" y="556.5" class="label">ummount Magisk tmpfs
ummount module mounts</text><rect x="940" y="585" width="220" height="50" rx="4" class="box-red" /><text x="1050.0" y="604.0" class="label label-bold">deny/logcat.cpp :: patch logcat</text><text x="1050.0" y="624.0" class="label">Filter Magisk entries
from denylisted processes</text><line x1="1050.0" y1="515" x2="1050.0" y2="500" class="edge" style="stroke:#C62828;" /><line x1="1050.0" y1="570" x2="1050.0" y2="585" class="edge" style="stroke:#C62828;" /><line x1="500.0" y1="730" x2="600.0" y2="795" class="edge" style="stroke:#F57F17;" /><text x="550.0" y="757.5" class="edge-label" fill="#F57F17">am start</text><text x="550.0" y="774.5" class="edge-label" fill="#F57F17">intent</text><rect x="200.0" y="790" width="800" height="70" rx="4" class="box-orange" /><text x="600.0" y="819.0" class="label label-bold">MAGISK MANAGER APP (Android)</text><text x="600.0" y="839.0" class="label">App.kt → Info.kt → Config.kt → Fragments (Home/Install/Module/Superuser/DenyList/Log/Settings)</text><rect x="50" y="830" width="130" height="20" rx="2" class="box-blue" /><text x="115.0" y="844.0" class="label label-bold">Boot/Daemon</text><rect x="190" y="830" width="130" height="20" rx="2" class="box-green" /><text x="255.0" y="844.0" class="label label-bold">SU System</text><rect x="330" y="830" width="130" height="20" rx="2" class="box-red" /><text x="395.0" y="844.0" class="label label-bold">Zygisk/DenyList</text><rect x="470" y="830" width="130" height="20" rx="2" class="box-yellow" /><text x="535.0" y="844.0" class="label label-bold">Module System</text><rect x="610" y="830" width="130" height="20" rx="2" class="box-orange" /><text x="675.0" y="844.0" class="label label-bold">Android App</text><rect x="750" y="830" width="130" height="20" rx="2" class="box-purple" /><text x="815.0" y="844.0" class="label label-bold">Init Process</text></svg>